<svg height="266.66666" viewBox="0 0 328.18668 266.66666" width="328.18668" xmlns="http://www.w3.org/2000/svg"><path d="m2209.43 1502.13c1.48-21.66 1.48-43.42 1.48-65.27 0-667.34-508.03-1436.86-1436.855-1436.86v.390625c-274.407-.359375-543.117 78.249975-774.055 226.461375 39.8945-4.782 80.0352-7.223 120.215-7.293 227.437-.231 448.336 76.062 627.16 216.589-216.055 4.071-405.641 144.993-471.797 350.711 75.668-14.578 153.676-11.609 228.02 8.661-235.629 47.601-405.0785 254.65-405.141 495.03v6.4c70.227-39.15 148.84-60.82 229.199-63.21-221.918 148.19-290.3787 443.38-156.343 674.13 256.421-315.48 634.726-507.27 1040.767-527.62-40.71 175.37 14.94 359.16 146.09 482.5 203.36 191.25 523.26 181.43 714.51-21.93 113.09 22.3 221.53 63.75 320.67 122.57-37.7-116.94-116.6-216.21-222.02-279.31 100.11 11.83 197.88 38.61 290.05 79.45-67.81-101.4-153.12-189.91-251.95-261.4" fill="#4f94d6" transform="matrix(.13333333 0 0 -.13333333 0 266.66667)"/></svg>